HIERARCHY
ROOT Hips
{
	OFFSET 0.000000 0.000000 0.000000
	CHANNELS 6 Xposition Yposition Zposition Xrotation Yrotation Zrotation
	JOINT LeftUpLeg_virtual
	{
		OFFSET 0.000000 0.000000 0.000000
		CHANNELS 3 Xrotation Yrotation Zrotation
		JOINT LeftUpLeg
		{
			OFFSET 11.394100 -6.187798 -0.413800
			CHANNELS 3 Xrotation Yrotation Zrotation
			JOINT LeftLeg
			{
				OFFSET 0.430247 -32.302673 3.732800
				CHANNELS 3 Xrotation Yrotation Zrotation
				JOINT LeftFoot
				{
					OFFSET -0.430247 -48.264931 -6.423300
					CHANNELS 3 Xrotation Yrotation Zrotation
					JOINT LeftToeBase
					{
						OFFSET 4.230900 -16.068199 23.438400
						CHANNELS 3 Xrotation Yrotation Zrotation
						JOINT LeftToe_End
						{
							OFFSET 4.510700 0.695400 19.974600
							CHANNELS 3 Xrotation Yrotation Zrotation
							End Site
							{
								OFFSET 0 0 0
							}
						}
					}
				}
			}
		}
	}
	JOINT RightUpLeg_virtual
	{
		OFFSET 0.000000 0.000000 0.000000
		CHANNELS 3 Xrotation Yrotation Zrotation
		JOINT RightUpLeg
		{
			OFFSET -11.333700 -6.187798 -0.413800
			CHANNELS 3 Xrotation Yrotation Zrotation
			JOINT RightLeg
			{
				OFFSET -0.430392 -32.302628 3.733000
				CHANNELS 3 Xrotation Yrotation Zrotation
				JOINT RightFoot
				{
					OFFSET 0.430392 -48.264973 -6.423500
					CHANNELS 3 Xrotation Yrotation Zrotation
					JOINT RightToeBase
					{
						OFFSET -4.230900 -16.068199 23.438400
						CHANNELS 3 Xrotation Yrotation Zrotation
						JOINT RightToe_End
						{
							OFFSET -4.510700 0.695400 19.974600
							CHANNELS 3 Xrotation Yrotation Zrotation
							End Site
							{
								OFFSET 0 0 0
							}
						}
					}
				}
			}
		}
	}
	JOINT Spine_virtual
	{
		OFFSET 0.000000 0.000000 0.000000
		CHANNELS 3 Xrotation Yrotation Zrotation
		JOINT Spine
		{
			OFFSET -0.002400 12.777504 0.315300
			CHANNELS 3 Xrotation Yrotation Zrotation
			JOINT Spine1
			{
				OFFSET -0.002067 5.816869 0.032633
				CHANNELS 3 Xrotation Yrotation Zrotation
				JOINT Spine1_split
				{
					OFFSET -0.002067 5.816869 0.032633
					CHANNELS 3 Xrotation Yrotation Zrotation
					JOINT Spine2
					{
						OFFSET -0.002067 5.816869 0.032633
						CHANNELS 3 Xrotation Yrotation Zrotation
						JOINT Neck_virtual
						{
							OFFSET 0.000000 0.000000 0.000000
							CHANNELS 3 Xrotation Yrotation Zrotation
							JOINT Neck
							{
								OFFSET -0.003700 21.199493 -0.826900
								CHANNELS 3 Xrotation Yrotation Zrotation
								JOINT Head
								{
									OFFSET 0.000000 20.442200 4.834800
									CHANNELS 3 Xrotation Yrotation Zrotation
									JOINT HeadTop_End
									{
										OFFSET 0.000000 34.668396 4.968400
										CHANNELS 3 Xrotation Yrotation Zrotation
										End Site
										{
											OFFSET 0 0 0
										}
									}
								}
							}
						}
						JOINT LeftShoulder_virtual
						{
							OFFSET 0.000000 0.000000 0.000000
							CHANNELS 3 Xrotation Yrotation Zrotation
							JOINT LeftShoulder
							{
								OFFSET 3.288150 8.794197 -1.372250
								CHANNELS 3 Xrotation Yrotation Zrotation
								JOINT LeftShoulder_split
								{
									OFFSET 3.288150 8.794197 -1.372250
									CHANNELS 3 Xrotation Yrotation Zrotation
									JOINT LeftArm
									{
										OFFSET 11.953299 -2.279007 -0.146200
										CHANNELS 3 Xrotation Yrotation Zrotation
										JOINT LeftForeArm
										{
											OFFSET 18.448900 0.000000 0.000000
											CHANNELS 3 Xrotation Yrotation Zrotation
											JOINT LeftHand
											{
												OFFSET 29.527798 0.000000 0.000000
												CHANNELS 3 Xrotation Yrotation Zrotation
												End Site
												{
													OFFSET 0 0 0
												}
											}
										}
									}
								}
							}
						}
						JOINT RightShoulder_virtual
						{
							OFFSET 0.000000 0.000000 0.000000
							CHANNELS 3 Xrotation Yrotation Zrotation
							JOINT RightShoulder
							{
								OFFSET -3.249400 8.794197 -1.372250
								CHANNELS 3 Xrotation Yrotation Zrotation
								JOINT RightShoulder_split
								{
									OFFSET -3.249400 8.794197 -1.372250
									CHANNELS 3 Xrotation Yrotation Zrotation
									JOINT RightArm
									{
										OFFSET -11.953299 -2.279007 -0.146200
										CHANNELS 3 Xrotation Yrotation Zrotation
										JOINT RightForeArm
										{
											OFFSET -18.448900 0.000000 0.000000
											CHANNELS 3 Xrotation Yrotation Zrotation
											JOINT RightHand
											{
												OFFSET -29.527802 0.000000 0.000000
												CHANNELS 3 Xrotation Yrotation Zrotation
												End Site
												{
													OFFSET 0 0 0
												}
											}
										}
									}
								}
							}
						}
					}
				}
			}
		}
	}
}
MOTION
Frames: 6
Frame Time: 0.03333333
11.227470 75.388428 -4.701540 0.000000 0.000000 0.000000 16.259919 -80.963799 16.890757 -48.553482 -16.479804 24.621881 50.059006 -10.005737 9.649882 -5.649163 -4.226545 -26.173970 -1.772472 1.266571 -2.836873 0.000000 0.000000 0.000000 13.514394 -81.226201 15.371033 -20.509547 12.221612 -28.842171 44.481723 11.641324 -9.773776 -13.933331 -0.124595 28.496236 -12.298466 1.257788 0.695909 0.000000 0.000000 0.000000 20.626423 -77.651014 20.930418 1.725548 4.851876 3.237636 0.931346 3.508385 1.147445 1.671440 -2.512780 1.108389 0.000000 0.000000 0.000000 0.992134 3.318013 0.988234 -2.913035 7.947267 -1.539179 0.990132 38.627247 -4.439390 0.000000 0.000000 0.000000 0.950285 3.588686 1.063723 1.282670 10.097516 -9.994180 -2.738977 -1.633760 -2.056524 -11.153813 11.612490 -65.873452 -179.838594 -64.203915 -177.095617 0.000000 0.000000 0.000000 1.787988 3.736931 0.584449 1.814750 9.488694 10.362378 -1.006125 3.212248 3.214794 -15.403830 33.912900 47.572158 -178.038539 73.559853 177.646841 0.000000 0.000000 0.000000 
11.128414 74.805542 -4.570486 0.000000 0.000000 0.000000 10.780691 -80.515124 11.268440 -49.242652 -15.827876 24.594926 49.385447 -11.242502 10.553918 -5.450302 -6.865808 -26.710657 -3.103097 1.396603 -2.460679 0.000000 0.000000 0.000000 8.965620 -79.596634 10.574878 -18.369729 9.985985 -28.582976 45.263015 10.399446 -9.884045 -13.808395 -1.555252 27.579798 -12.851531 0.785176 2.611404 0.000000 0.000000 0.000000 18.615786 -76.773116 18.520032 1.253171 5.093287 3.123564 0.841658 3.626802 1.161841 1.550460 -3.399293 1.152446 0.000000 0.000000 0.000000 0.819566 3.465432 0.960551 -2.332142 7.542207 -1.584447 1.798667 37.411361 -4.257682 0.000000 0.000000 0.000000 0.953957 3.651685 1.101178 1.137402 9.967629 -8.995443 -2.183045 -1.345196 -3.204427 -9.218703 8.964755 -66.044582 179.729680 -64.123004 -177.307613 0.000000 0.000000 0.000000 1.482913 3.825367 0.623053 1.868926 8.994592 9.584511 -1.314300 4.022078 3.329382 -13.583312 32.774717 47.127308 -177.224093 72.030601 176.696721 0.000000 0.000000 0.000000 
10.931229 77.423859 -4.468664 0.000000 0.000000 0.000000 6.544076 -77.826474 6.903192 -49.366094 -14.332718 23.694295 43.806740 -13.558305 10.596650 -1.457102 -11.455529 -27.790126 -3.692969 1.286719 -1.470475 0.000000 0.000000 0.000000 6.622123 -76.202221 8.165309 -16.595954 7.261410 -27.598266 43.945324 9.722796 -10.033591 -9.292751 -1.529906 27.570550 -17.654308 -0.176213 5.029662 0.000000 0.000000 0.000000 14.670411 -74.661979 14.277348 0.885069 5.107354 3.052867 0.610908 3.625147 1.087993 1.080653 -4.087394 1.147128 0.000000 0.000000 0.000000 0.598387 3.484630 0.874083 -1.692803 7.098981 -1.607798 2.672554 35.481419 -3.566511 0.000000 0.000000 0.000000 0.822904 3.612259 1.054964 0.989014 9.414289 -7.576685 -1.286941 -0.819821 -4.006682 -7.301512 4.856786 -64.335287 179.558898 -63.725487 -177.578512 0.000000 0.000000 0.000000 1.085900 3.773809 0.593736 1.838928 8.453373 8.642756 -1.662760 4.682896 3.251815 -11.142023 30.595143 46.249578 -177.258832 69.396088 176.563737 0.000000 0.000000 0.000000 
10.622616 82.624832 -4.531042 0.000000 0.000000 0.000000 4.857450 -73.458739 5.100542 -48.211440 -11.941860 22.389941 34.706274 -15.551837 9.237988 5.305734 -16.171421 -27.651293 -3.058474 1.014082 -0.346575 0.000000 0.000000 0.000000 5.382700 -71.565636 6.927717 -15.514686 4.553568 -26.047020 41.348087 9.714785 -10.203387 -2.590057 -0.256564 28.108962 -24.119275 -1.666221 7.275370 0.000000 0.000000 0.000000 10.460255 -71.378571 10.036473 0.740257 4.904244 3.029576 0.343650 3.513646 0.951400 0.520818 -4.053153 1.184120 0.000000 0.000000 0.000000 0.365631 3.381521 0.758274 -1.147298 6.643197 -1.647585 3.348322 33.048813 -2.551945 0.000000 0.000000 0.000000 0.592406 3.486496 0.966073 0.913640 8.461460 -6.179779 -0.349735 -0.244342 -4.393555 -5.600493 0.060005 -61.257371 179.746919 -63.173594 -177.705321 0.000000 0.000000 0.000000 0.711729 3.606998 0.508127 1.705929 7.950163 7.658323 -2.123292 4.914215 2.945095 -8.513460 27.628566 44.847876 -177.823347 66.740347 176.921803 0.000000 0.000000 0.000000 
10.093287 89.143951 -4.787704 0.000000 0.000000 0.000000 4.668374 -68.465796 4.774112 -45.565654 -8.566229 21.017510 25.137437 -15.297259 7.040837 11.872680 -18.091542 -24.695273 -1.400526 0.677998 0.255056 0.000000 0.000000 0.000000 4.497965 -66.212632 6.109371 -15.100215 1.833238 -23.877655 38.885817 9.306203 -10.180616 2.504543 0.775195 27.378152 -27.287027 -3.130571 8.801909 0.000000 0.000000 0.000000 7.166038 -67.195230 7.009718 0.812141 4.507978 3.050344 0.181711 3.312509 0.788209 0.070804 -3.369239 1.148655 0.000000 0.000000 0.000000 0.160180 3.167645 0.640164 -0.835688 6.177898 -1.733150 3.669276 30.447535 -1.467477 0.000000 0.000000 0.000000 0.397520 3.279169 0.855919 0.984678 7.181392 -5.320861 0.209323 0.061873 -4.331539 -4.201105 -4.639729 -57.619524 -179.713192 -62.696069 -177.671033 0.000000 0.000000 0.000000 0.481708 3.372354 0.417535 1.513186 7.591545 6.778838 -2.379418 4.777964 2.284185 -6.265392 24.211284 43.237071 -178.585637 64.905594 177.494459 0.000000 0.000000 0.000000 
9.392799 95.520004 -5.235312 0.000000 0.000000 0.000000 4.791449 -63.692716 4.856969 -41.293165 -4.485256 19.549077 17.784356 -12.649279 5.323642 15.329217 -15.988448 -19.597708 -0.118479 0.346570 0.232649 0.000000 0.000000 0.000000 3.451309 -60.913854 5.288080 -16.007441 -0.461624 -21.421492 37.484768 7.913386 -9.909758 3.851089 0.539729 24.300997 -23.182951 -3.586893 9.286243 0.000000 0.000000 0.000000 4.975079 -62.463473 5.314944 1.129207 3.949231 3.003694 0.226186 3.030060 0.617965 0.231905 -2.592288 1.032205 0.000000 0.000000 0.000000 0.034006 2.849451 0.537437 -0.877757 5.745882 -1.889926 3.489665 27.866518 -0.471124 0.000000 0.000000 0.000000 0.327015 2.980425 0.742862 1.183014 5.709417 -5.205394 0.200578 0.052289 -3.991589 -3.417839 -8.491285 -54.393069 -179.068736 -62.821819 -177.608086 0.000000 0.000000 0.000000 0.454992 3.079242 0.324364 1.285535 7.391731 6.105688 -2.404042 4.382576 1.425945 -4.796733 20.754334 41.708332 -179.356656 64.428519 178.165170 0.000000 0.000000 0.000000 
